<svg width="1000" height="1000" viewBox="0 0 1000 1000" fill="none" xmlns="http://www.w3.org/2000/svg">
<g clip-path="url(#clip0_443_564)">
<rect width="1000" height="1000" fill="white"/>
<rect width="1000" height="1000" fill="black"/>
<path fill-rule="evenodd" clip-rule="evenodd" d="M538.728 225.487C547.932 225.476 556.096 231.393 558.951 240.143L586.932 325.917C589.787 334.667 586.683 344.26 579.242 349.678L506.314 402.796C498.875 408.215 488.791 408.227 481.339 402.825L408.285 349.881C400.832 344.48 397.705 334.894 400.539 326.138L428.318 240.298C431.152 231.541 439.302 225.605 448.506 225.594L538.728 225.487Z" fill="white"/>
<path fill-rule="evenodd" clip-rule="evenodd" d="M534.993 770.718C544.196 770.711 552.35 764.778 555.187 756.023L583.002 670.195C585.84 661.44 582.717 651.853 575.267 646.449L502.235 593.473C494.785 588.069 484.702 588.076 477.26 593.491L404.308 646.578C396.867 651.994 393.758 661.585 396.609 670.336L424.554 756.121C427.405 764.873 435.567 770.794 444.771 770.786L534.993 770.718Z" fill="white"/>
<path fill-rule="evenodd" clip-rule="evenodd" d="M753.259 431.195C762.013 434.04 767.939 442.197 767.939 451.401V541.623C767.939 550.827 762.013 558.984 753.259 561.829L667.453 589.709C658.699 592.553 649.11 589.438 643.7 581.991L590.669 509C585.259 501.554 585.259 491.471 590.669 484.025L643.7 411.034C649.11 403.588 658.699 400.471 667.453 403.316L753.259 431.195Z" fill="white"/>
<path fill-rule="evenodd" clip-rule="evenodd" d="M237.284 570.316C228.53 567.471 222.604 559.314 222.604 550.11L222.604 459.888C222.604 450.685 228.53 442.527 237.284 439.683L323.09 411.802C331.843 408.958 341.433 412.074 346.842 419.52L399.874 492.512C405.284 499.958 405.284 510.041 399.874 517.487L346.842 590.479C341.433 597.925 331.843 601.04 323.09 598.195L237.284 570.316Z" fill="white"/>
</g>
<defs>
<clipPath id="clip0_443_564">
<rect width="1000" height="1000" fill="white"/>
</clipPath>
</defs>
</svg>
